<svg width="52" height="48" viewBox="0 0 52 48" fill="none" xmlns="http://www.w3.org/2000/svg">
<path d="M10 1.5H42C46.6944 1.5 50.5 5.30558 50.5 10V38C50.5 42.6944 46.6944 46.5 42 46.5H10C5.30558 46.5 1.5 42.6944 1.5 38V10C1.5 5.30558 5.30558 1.5 10 1.5Z" fill="white" stroke="black" stroke-width="3"/>
<path fill-rule="evenodd" clip-rule="evenodd" d="M27.05 26.05V22.95H41V24.5C41 33.0604 34.0604 40 25.5 40C16.9396 40 10 33.0604 10 24.5C10 15.9396 16.9396 9 25.5 9C30.2739 9 34.6935 11.1739 37.616 14.832L35.194 16.7669C32.8536 13.8375 29.3212 12.1 25.5 12.1C18.6517 12.1 13.1 17.6517 13.1 24.5C13.1 31.3483 18.6517 36.9 25.5 36.9C31.8234 36.9 37.0413 32.1668 37.8041 26.05H27.05Z" fill="black"/>
</svg>
