<svg width="52" height="48" viewBox="0 0 52 48" fill="none" xmlns="http://www.w3.org/2000/svg">
<path d="M10 1.5H42C46.6944 1.5 50.5 5.30558 50.5 10V38C50.5 42.6944 46.6944 46.5 42 46.5H10C5.30558 46.5 1.5 42.6944 1.5 38V10C1.5 5.30558 5.30558 1.5 10 1.5Z" fill="white" stroke="black" stroke-width="3"/>
<path fill-rule="evenodd" clip-rule="evenodd" d="M37.4444 18.3563V15.4444H15.4444V18.3558L26.4445 23.8563L37.4444 18.3563ZM37.4444 21.0893L26.4444 26.5893L15.4444 21.0888V32.5556H37.4444V21.0893ZM15.4444 13H37.4444C38.7945 13 39.8889 14.0944 39.8889 15.4444V32.5556C39.8889 33.9056 38.7945 35 37.4444 35H15.4444C14.0944 35 13 33.9056 13 32.5556V15.4444C13 14.0944 14.0944 13 15.4444 13Z" fill="black"/>
</svg>
