<svg width="52" height="48" viewBox="0 0 52 48" fill="none" xmlns="http://www.w3.org/2000/svg">
<path d="M10 1.5H42C46.6944 1.5 50.5 5.30558 50.5 10V38C50.5 42.6944 46.6944 46.5 42 46.5H10C5.30558 46.5 1.5 42.6944 1.5 38V10C1.5 5.30558 5.30558 1.5 10 1.5Z" fill="white" stroke="black" stroke-width="3"/>
<path d="M35.8205 20.3258C34.904 18.7718 32.219 17.3333 30.6183 17.3333C28.5013 17.3333 27.6106 18.6176 26.152 18.6176C24.6417 18.6176 23.2604 17.4104 21.4403 17.4104C18.949 17.4232 15.1667 19.7093 15.1667 25.0906C15.1667 29.9839 19.6331 35.4165 22.1632 35.4165C23.6993 35.4294 24.0737 34.4533 26.152 34.4533C28.2303 34.4405 28.6821 35.4294 30.2182 35.4165C31.9479 35.4037 33.2904 33.5157 34.2844 32.0259C34.9944 30.9599 35.2783 30.4077 35.8334 29.2004C31.7543 28.1858 30.9411 21.6743 35.8205 20.3258Z" fill="white" stroke="black" stroke-width="2" stroke-miterlimit="10" stroke-linecap="round" stroke-linejoin="round"/>
<path d="M29.72 13.3679C30.6236 12.3862 31.2948 11.0042 31.0496 9.58333C29.578 9.67374 27.8999 10.4875 26.893 11.5208C25.9894 12.4637 25.2794 13.8717 25.5634 15.2279C27.1641 15.2667 28.7647 14.4271 29.72 13.3679Z" fill="white" stroke="black" stroke-width="2" stroke-miterlimit="10" stroke-linecap="round" stroke-linejoin="round"/>
</svg>
